<svg xmlns="http://www.w3.org/2000/svg" xmlns:xlink="http://www.w3.org/1999/xlink" width="220.266" height="40" viewBox="0 0 220.266 40">
  <defs>
    <clipPath id="clip-path">
      <rect id="Rectangle_209" data-name="Rectangle 209" width="140.7" height="20" fill="#5e81ac"/>
    </clipPath>
  </defs>
  <g id="m-logo" transform="translate(0 10)">
    <g id="Group_179" data-name="Group 179" clip-path="url(#clip-path)">
      <path id="Path_423" data-name="Path 423" d="M18.18,21.475a6.448,6.448,0,0,1,2.995.673,4.765,4.765,0,0,1,2.045,2.058,7.512,7.512,0,0,1,.739,3.549v8.127H19.842V28.388a3.84,3.84,0,0,0-.7-2.533,2.447,2.447,0,0,0-1.966-.818,3.228,3.228,0,0,0-1.636.409,2.683,2.683,0,0,0-1.1,1.214,4.912,4.912,0,0,0-.382,2.1v7.124H9.947V28.388a3.838,3.838,0,0,0-.7-2.533,2.51,2.51,0,0,0-2.019-.818,3.176,3.176,0,0,0-1.609.409A2.759,2.759,0,0,0,4.512,26.66a4.769,4.769,0,0,0-.4,2.1v7.124H0v-14.2H3.932v3.852L3.193,24.43a4.914,4.914,0,0,1,2.084-2.2,6.313,6.313,0,0,1,3.087-.752,6.019,6.019,0,0,1,3.43.99,4.763,4.763,0,0,1,1.953,3.021l-1.451-.4a5.8,5.8,0,0,1,2.269-2.625,6.592,6.592,0,0,1,3.615-.99" transform="translate(0 -16.092)" fill="#5e81ac"/>
      <path id="Path_424" data-name="Path 424" d="M113.44,36.092a9.059,9.059,0,0,1-4.248-.95,6.917,6.917,0,0,1-3.826-6.359,7.386,7.386,0,0,1,.963-3.773,6.775,6.775,0,0,1,2.691-2.6,8.037,8.037,0,0,1,3.892-.937,7.843,7.843,0,0,1,3.76.9,6.744,6.744,0,0,1,2.652,2.533,7.541,7.541,0,0,1,.976,3.932c0,.158-.009.339-.027.541s-.035.392-.053.567H108.691v-2.4h9.367l-1.609.712a3.757,3.757,0,0,0-.422-1.926,3.277,3.277,0,0,0-1.24-1.28,3.6,3.6,0,0,0-1.847-.461,3.674,3.674,0,0,0-1.86.461,3.225,3.225,0,0,0-1.253,1.293,4.078,4.078,0,0,0-.449,1.966v.633A3.891,3.891,0,0,0,109.9,31a3.477,3.477,0,0,0,1.451,1.332,4.9,4.9,0,0,0,2.216.462,5.259,5.259,0,0,0,1.966-.343,4.845,4.845,0,0,0,1.57-1.029L119.3,33.8a6.382,6.382,0,0,1-2.454,1.7,9.081,9.081,0,0,1-3.4.594" transform="translate(-78.957 -16.092)" fill="#5e81ac"/>
      <path id="Path_425" data-name="Path 425" d="M192.551,21.475a6.447,6.447,0,0,1,2.994.673,4.766,4.766,0,0,1,2.045,2.058,7.515,7.515,0,0,1,.739,3.549v8.127h-4.117V28.388a3.838,3.838,0,0,0-.7-2.533,2.447,2.447,0,0,0-1.966-.818,3.227,3.227,0,0,0-1.636.409,2.683,2.683,0,0,0-1.1,1.214,4.912,4.912,0,0,0-.382,2.1v7.124h-4.117V28.388a3.837,3.837,0,0,0-.7-2.533,2.51,2.51,0,0,0-2.018-.818,3.175,3.175,0,0,0-1.609.409,2.759,2.759,0,0,0-1.108,1.214,4.77,4.77,0,0,0-.4,2.1v7.124h-4.116v-14.2H178.3v3.852l-.739-1.108a4.912,4.912,0,0,1,2.084-2.2,6.313,6.313,0,0,1,3.087-.752,6.018,6.018,0,0,1,3.43.99,4.764,4.764,0,0,1,1.953,3.021l-1.451-.4a5.807,5.807,0,0,1,2.27-2.625,6.591,6.591,0,0,1,3.615-.99" transform="translate(-130.666 -16.092)" fill="#5e81ac"/>
      <path id="Path_426" data-name="Path 426" d="M287.493,36.092a8.261,8.261,0,0,1-4-.95A7.379,7.379,0,0,1,280.739,25a7.036,7.036,0,0,1,2.757-2.586,8.355,8.355,0,0,1,4-.937,8.493,8.493,0,0,1,4.037.937A7.021,7.021,0,0,1,294.3,25a7.193,7.193,0,0,1-2.771,10.145,8.4,8.4,0,0,1-4.037.95m0-3.377a3.671,3.671,0,0,0,1.86-.462,3.387,3.387,0,0,0,1.293-1.359,4.35,4.35,0,0,0,.488-2.111,4.256,4.256,0,0,0-.488-2.11,3.433,3.433,0,0,0-1.293-1.333,3.623,3.623,0,0,0-1.834-.462,3.694,3.694,0,0,0-1.847.462,3.4,3.4,0,0,0-1.306,1.333,4.253,4.253,0,0,0-.488,2.11,4.347,4.347,0,0,0,.488,2.111,3.354,3.354,0,0,0,1.306,1.359,3.636,3.636,0,0,0,1.821.462" transform="translate(-209.622 -16.092)" fill="#5e81ac"/>
      <path id="Path_427" data-name="Path 427" d="M353.879,36.092a13.7,13.7,0,0,1-3.483-.435,9.05,9.05,0,0,1-2.665-1.1l1.346-2.929a10.335,10.335,0,0,0,2.335.963,9.476,9.476,0,0,0,2.625.382,4.3,4.3,0,0,0,2.018-.343,1.054,1.054,0,0,0,.594-.95.809.809,0,0,0-.462-.752,4.035,4.035,0,0,0-1.214-.382q-.752-.132-1.675-.264a16.554,16.554,0,0,1-1.834-.369,7.128,7.128,0,0,1-1.689-.673,3.312,3.312,0,0,1-1.24-1.2,3.786,3.786,0,0,1-.462-1.979,3.843,3.843,0,0,1,.792-2.388,5.124,5.124,0,0,1,2.243-1.623,9.461,9.461,0,0,1,3.509-.58,13.711,13.711,0,0,1,2.968.33,9.171,9.171,0,0,1,2.52.91l-1.4,2.929a7.339,7.339,0,0,0-2.045-.818,8.964,8.964,0,0,0-1.992-.237,4.284,4.284,0,0,0-2.058.369,1.088,1.088,0,0,0-.633.95.88.88,0,0,0,.475.8,3.726,3.726,0,0,0,1.24.409q.765.133,1.689.264a16,16,0,0,1,1.821.369,7.194,7.194,0,0,1,1.676.673,3.318,3.318,0,0,1,1.24,1.2,3.789,3.789,0,0,1,.462,1.979,3.654,3.654,0,0,1-.792,2.309,5.2,5.2,0,0,1-2.282,1.6,10.031,10.031,0,0,1-3.628.58" transform="translate(-260.575 -16.092)" fill="#5e81ac"/>
      <path id="Path_428" data-name="Path 428" d="M413.975,36.092a8.261,8.261,0,0,1-4-.95A7.379,7.379,0,0,1,407.221,25a7.036,7.036,0,0,1,2.757-2.586,8.355,8.355,0,0,1,4-.937,8.493,8.493,0,0,1,4.037.937A7.019,7.019,0,0,1,420.783,25a7.193,7.193,0,0,1-2.771,10.145,8.4,8.4,0,0,1-4.037.95m0-3.377a3.671,3.671,0,0,0,1.86-.462,3.387,3.387,0,0,0,1.293-1.359,4.349,4.349,0,0,0,.488-2.111,4.256,4.256,0,0,0-.488-2.11,3.432,3.432,0,0,0-1.293-1.333A3.623,3.623,0,0,0,414,24.878a3.694,3.694,0,0,0-1.847.462,3.4,3.4,0,0,0-1.306,1.333,4.256,4.256,0,0,0-.488,2.11,4.35,4.35,0,0,0,.488,2.111,3.354,3.354,0,0,0,1.306,1.359,3.636,3.636,0,0,0,1.821.462" transform="translate(-304.403 -16.092)" fill="#5e81ac"/>
      <path id="Path_429" data-name="Path 429" d="M471.139,5.91h9.842V9.077h-9.842Zm2.19,13.879V5.277a5.206,5.206,0,0,1,1.425-3.852A5.5,5.5,0,0,1,478.817,0a8.021,8.021,0,0,1,1.715.184,4.394,4.394,0,0,1,1.425.554l-1.082,3.008a2.817,2.817,0,0,0-.765-.369,3,3,0,0,0-.9-.132,1.847,1.847,0,0,0-1.386.5,2.2,2.2,0,0,0-.488,1.583V6.649l.132,1.741v11.4Z" transform="translate(-353.052 0)" fill="#5e81ac"/>
      <path id="Path_430" data-name="Path 430" d="M518.2,13.246h9.842v3.166H518.2Zm7.493,14.09a5.57,5.57,0,0,1-3.9-1.28,4.913,4.913,0,0,1-1.4-3.813V9.79h4.142V22.165a1.985,1.985,0,0,0,.462,1.4,1.62,1.62,0,0,0,1.253.5,2.686,2.686,0,0,0,1.689-.528l1.082,2.9a4.226,4.226,0,0,1-1.491.673,7.436,7.436,0,0,1-1.834.224" transform="translate(-388.314 -7.336)" fill="#5e81ac"/>
    </g>
  </g>
  <path id="Path_543" data-name="Path 543" d="M8.062.144a7.222,7.222,0,0,1-3.58-.882A6.4,6.4,0,0,1,2-3.2a7.309,7.309,0,0,1-.9-3.688A7.3,7.3,0,0,1,2-10.575a6.409,6.409,0,0,1,2.483-2.458,7.222,7.222,0,0,1,3.58-.882,6.38,6.38,0,0,1,3.148.783,5.71,5.71,0,0,1,2.257,2.337,8.112,8.112,0,0,1,.845,3.907,8.321,8.321,0,0,1-.823,3.9A5.553,5.553,0,0,1,11.254-.639,6.471,6.471,0,0,1,8.062.144Zm.2-2.185a4.689,4.689,0,0,0,2.367-.6,4.359,4.359,0,0,0,1.662-1.7A5.14,5.14,0,0,0,12.9-6.888a5.122,5.122,0,0,0-.615-2.564,4.367,4.367,0,0,0-1.662-1.683,4.7,4.7,0,0,0-2.367-.6,4.692,4.692,0,0,0-2.365.6A4.384,4.384,0,0,0,4.232-9.452a5.11,5.11,0,0,0-.617,2.564,5.127,5.127,0,0,0,.617,2.551,4.375,4.375,0,0,0,1.662,1.7A4.679,4.679,0,0,0,8.259-2.041ZM12.97,0V-3.71l.15-3.2-.26-3.2v-9.175h2.5V0ZM25.991.144a7.4,7.4,0,0,1-3.677-.9,6.692,6.692,0,0,1-2.551-2.5,7.047,7.047,0,0,1-.935-3.632,6.979,6.979,0,0,1,.939-3.641,6.775,6.775,0,0,1,2.547-2.48,7.378,7.378,0,0,1,3.677-.9,7.468,7.468,0,0,1,3.691.9,6.635,6.635,0,0,1,2.547,2.476,7.066,7.066,0,0,1,.925,3.647,7.12,7.12,0,0,1-.922,3.636A6.579,6.579,0,0,1,29.68-.76,7.478,7.478,0,0,1,25.991.144Zm0-2.185a4.733,4.733,0,0,0,2.389-.6,4.283,4.283,0,0,0,1.651-1.7,5.22,5.22,0,0,0,.6-2.554,5.191,5.191,0,0,0-.6-2.562,4.291,4.291,0,0,0-1.651-1.683A4.724,4.724,0,0,0,26-11.73a4.714,4.714,0,0,0-2.376.6,4.384,4.384,0,0,0-1.662,1.683,5.1,5.1,0,0,0-.617,2.562,5.133,5.133,0,0,0,.617,2.554,4.379,4.379,0,0,0,1.66,1.7A4.677,4.677,0,0,0,25.991-2.041ZM42.61.144a7.659,7.659,0,0,1-3.744-.9,6.643,6.643,0,0,1-2.584-2.493,7.031,7.031,0,0,1-.935-3.635,7.016,7.016,0,0,1,.935-3.646,6.653,6.653,0,0,1,2.584-2.48,7.673,7.673,0,0,1,3.744-.9,7.3,7.3,0,0,1,3.343.744,5.3,5.3,0,0,1,2.284,2.209l-1.9,1.2a4.264,4.264,0,0,0-1.643-1.485,4.649,4.649,0,0,0-2.1-.485,4.889,4.889,0,0,0-2.417.6,4.332,4.332,0,0,0-1.688,1.683,5.11,5.11,0,0,0-.617,2.564,5.109,5.109,0,0,0,.617,2.564A4.346,4.346,0,0,0,40.17-2.638a4.876,4.876,0,0,0,2.417.6,4.723,4.723,0,0,0,2.1-.476,4.151,4.151,0,0,0,1.643-1.494l1.9,1.2a5.4,5.4,0,0,1-2.284,2.2A7.213,7.213,0,0,1,42.61.144Zm12.817,0A11.346,11.346,0,0,1,52.15-.321,7.671,7.671,0,0,1,49.713-1.46l1.058-1.975a8.073,8.073,0,0,0,2.182,1.026A8.714,8.714,0,0,0,55.6-2a4.773,4.773,0,0,0,2.51-.5,1.554,1.554,0,0,0,.777-1.367,1.205,1.205,0,0,0-.472-1.016,3.338,3.338,0,0,0-1.247-.551q-.775-.189-1.708-.327t-1.866-.357a7.113,7.113,0,0,1-1.708-.629,3.329,3.329,0,0,1-1.247-1.128,3.412,3.412,0,0,1-.472-1.9,3.515,3.515,0,0,1,.7-2.173,4.522,4.522,0,0,1,1.986-1.45,8.184,8.184,0,0,1,3.058-.516,11.718,11.718,0,0,1,2.744.333,7.219,7.219,0,0,1,2.272.913l-1.059,1.975a6.165,6.165,0,0,0-1.953-.843,8.89,8.89,0,0,0-2.027-.237,4.5,4.5,0,0,0-2.443.529,1.577,1.577,0,0,0-.8,1.359,1.3,1.3,0,0,0,.472,1.079,3.449,3.449,0,0,0,1.247.589,14.431,14.431,0,0,0,1.708.351q.933.138,1.864.357a7.491,7.491,0,0,1,1.706.616,3.269,3.269,0,0,1,1.247,1.1,3.285,3.285,0,0,1,.472,1.861,3.4,3.4,0,0,1-.722,2.169A4.579,4.579,0,0,1,58.595-.353,9.032,9.032,0,0,1,55.427.144Z" transform="translate(158.904 29.292)" fill="#a3be8c"/>
  <path id="Path_542" data-name="Path 542" d="M14,0h2L2,40H0Z" transform="translate(143)" fill="#a3be8c"/>
</svg>
